# MagicaVoxel @ Ephtracy

# group
o 

# material
mtllib Enemy.mtl
usemtl palette

# normals
vn -1 0 0
vn 1 0 0
vn 0 0 1
vn 0 0 -1
vn 0 -1 0
vn 0 1 0

# texcoords
vt 0.587891 0.5
vt 0.708984 0.5
vt 0.982422 0.5

# verts
v -0.7 0 0.7
v -0.7 0 -0.8
v -0.7 1.5 0.7
v -0.7 1.5 -0.8
v 0.8 0 0.7
v 0.8 0 -0.8
v 0.8 1.5 0.7
v 0.8 1.5 -0.8
v -0.7 0 0.7
v -0.7 1.5 0.7
v -0.4 0 0.7
v -0.4 0.1 0.7
v -0.4 0.9 0.7
v -0.4 1 0.7
v -0.3 0 0.7
v -0.3 0.1 0.7
v -0.3 0.2 0.7
v -0.3 0.9 0.7
v -0.3 1 0.7
v -0.2 0.1 0.7
v -0.2 0.2 0.7
v -0.2 0.3 0.7
v -0.1 0.2 0.7
v -0.1 0.3 0.7
v 0.3 0.9 0.7
v 0.3 1 0.7
v 0.4 0.9 0.7
v 0.4 1 0.7
v 0.8 0 0.7
v 0.8 1.5 0.7
v -0.7 0 -0.8
v -0.7 1.5 -0.8
v 0.8 0 -0.8
v 0.8 1.5 -0.8
v -0.7 0 0.7
v -0.4 0 0.7
v -0.3 0 0.7
v 0.8 0 0.7
v -0.4 0 0.6
v -0.3 0 0.6
v -0.7 0 -0.8
v 0.8 0 -0.8
v -0.7 1.5 0.7
v 0.8 1.5 0.7
v -0.7 1.5 -0.8
v 0.8 1.5 -0.8

# faces
f 3/2/1 2/2/1 1/2/1
f 4/2/1 2/2/1 3/2/1
f 5/2/2 6/2/2 7/2/2
f 7/2/2 6/2/2 8/2/2
f 11/2/3 10/2/3 9/2/3
f 12/2/3 10/2/3 11/2/3
f 13/2/3 10/2/3 12/2/3
f 14/2/3 10/2/3 13/2/3
f 15/1/3 12/1/3 11/1/3
f 16/2/3 13/2/3 12/2/3
f 16/1/3 12/1/3 15/1/3
f 17/2/3 13/2/3 16/2/3
f 18/3/3 14/3/3 13/3/3
f 18/2/3 13/2/3 17/2/3
f 19/2/3 10/2/3 14/2/3
f 19/3/3 14/3/3 18/3/3
f 20/1/3 17/1/3 16/1/3
f 20/2/3 16/2/3 15/2/3
f 21/2/3 18/2/3 17/2/3
f 21/1/3 17/1/3 20/1/3
f 21/2/3 19/2/3 18/2/3
f 22/2/3 19/2/3 21/2/3
f 23/2/3 21/2/3 20/2/3
f 23/3/3 22/3/3 21/3/3
f 24/2/3 19/2/3 22/2/3
f 24/3/3 22/3/3 23/3/3
f 25/2/3 24/2/3 23/2/3
f 25/2/3 19/2/3 24/2/3
f 26/2/3 10/2/3 19/2/3
f 26/2/3 19/2/3 25/2/3
f 27/2/3 25/2/3 23/2/3
f 27/3/3 26/3/3 25/3/3
f 28/2/3 10/2/3 26/2/3
f 28/3/3 26/3/3 27/3/3
f 29/2/3 20/2/3 15/2/3
f 29/2/3 27/2/3 23/2/3
f 29/2/3 28/2/3 27/2/3
f 29/2/3 23/2/3 20/2/3
f 30/2/3 10/2/3 28/2/3
f 30/2/3 28/2/3 29/2/3
f 31/2/4 32/2/4 33/2/4
f 33/2/4 32/2/4 34/2/4
f 39/2/5 36/2/5 35/2/5
f 39/1/5 37/1/5 36/1/5
f 40/2/5 38/2/5 37/2/5
f 40/1/5 37/1/5 39/1/5
f 41/2/5 39/2/5 35/2/5
f 41/2/5 40/2/5 39/2/5
f 42/2/5 38/2/5 40/2/5
f 42/2/5 40/2/5 41/2/5
f 43/2/6 44/2/6 45/2/6
f 45/2/6 44/2/6 46/2/6
